<?xml version="1.0" encoding="UTF-8"?>
<svg id="Layer_2" data-name="Layer 2" xmlns="http://www.w3.org/2000/svg" viewBox="0 0 121.88 122.14">
  <defs>
    <style>
      .cls-1, .cls-2 {
        fill: #231f20;
      }

      .cls-3 {
        stroke: #fff;
        stroke-width: .5px;
      }

      .cls-3, .cls-2, .cls-4 {
        stroke-miterlimit: 10;
      }

      .cls-3, .cls-4 {
        fill: #fff;
      }

      .cls-2 {
        stroke-width: 2px;
      }

      .cls-2, .cls-4 {
        stroke: #231f20;
      }

      .cls-4 {
        stroke-width: 3px;
      }
    </style>
  </defs>
  <g id="Layer_1-2" data-name="Layer 1">
    <path class="cls-1" d="M121.88,60.95c0,19.46-9.11,36.78-23.31,47.93-10.36,8.15-23.43,13.01-37.63,13.01s-27.27-4.86-37.63-13.01C9.11,97.73,0,80.41,0,60.95,0,27.29,27.28,0,60.94,0s60.94,27.29,60.94,60.95Z"/>
    <path class="cls-3" d="M98.57,108.88c-10.36,8.15-23.43,13.01-37.63,13.01s-27.27-4.86-37.63-13.01l24.44-26.68c4.52,3.8,9.2,6.17,13.18,6.17,3.47,0,8.12-2.55,12.79-6.61l24.85,27.12Z"/>
    <path class="cls-4" d="M92.99,46.89c0,17.7-21.46,41.49-32.05,41.49-12.64,0-32.05-23.79-32.05-41.49S43.24,14.84,60.94,14.84s32.05,14.35,32.05,32.05Z"/>
    <path class="cls-2" d="M67.41,68.48h0c0-9.32,7.55-16.87,16.87-16.87h0c0,9.32-7.55,16.87-16.87,16.87Z"/>
    <path class="cls-2" d="M54.47,68.48h0c0-9.32-7.55-16.87-16.87-16.87h0c0,9.32,7.55,16.87,16.87,16.87Z"/>
  </g>
</svg>