<?xml version="1.0" encoding="UTF-8"?>
<svg id="Layer_2" data-name="Layer 2" xmlns="http://www.w3.org/2000/svg" viewBox="0 0 145.18 103.2">
  <defs>
    <style>
      .cls-1, .cls-2 {
        fill: #231f20;
      }

      .cls-2 {
        stroke: #231f20;
        stroke-miterlimit: 10;
      }
    </style>
  </defs>
  <g id="Layer_1-2" data-name="Layer 1">
    <path class="cls-2" d="M22.98,33.34c-11.26,11.09-18.59,32.9-9.43,47.93,18.4,30.18,54.89,12.26,57.09,9.1s-13.19-8.71-19.27-10.38c-.89-.24-.17-.41-4.96-1.05-.52-.07-2.59-1.2-2.59-1.2-1.53-1.31.16-3.04,1.36-4.19,1.88-1.81-3.48-1.48-4.8-2.55-2.58-2.09,2.56-4.36,2.74-5.96.29-2.61-21.41.62-24.72-3.82-3.91-5.26,2.44-15.62,9.57-24.27,6.34-7.69,19.81-14.71,19.42-15.39-.46-.79-15.99,3.47-24.42,11.77Z"/>
    <path class="cls-1" d="M145.18,71.16c-5.21,5.43-10.51,10.81-16.17,15.8-6.05,5.3-12.16,10.63-20.59,12.33-9.46,2.03-20.43-4.12-22.95-13.58-4.35-16.82,9.9-40.34,15.33-56.14,1.02-3.08,2.49-6.89,2.02-9.84-2-4.41-6.05-6.59-10.96-7.64-25.14-4.03-57.33,13.98-72.67,33.5-3.97,5.12-7.81,10.93-8.72,17.43-2.83,21.07,19.8,35.52,39.22,33.15,6.99-.65,13.91-3.04,20.47-6.49.41-.22.92-.06,1.14.35.19.35.1.77-.18,1.03-5.67,5.1-12.69,8.99-20.45,10.86-20.03,5.34-44.24-6.27-49.56-27.25-3.51-13.17,1.63-25.25,9.59-35.57C27.82,16.01,65.06-4.74,94.27.95c6.5,1.31,13.73,5.28,17.31,11.48.56.9,1.05,1.93,1.48,2.89.73,1.76,1.01,3.76.99,5.25-.09,4.86-1.45,8.58-2.94,12.78-3.96,10.51-9.39,20.62-13.13,30.88-2.19,6.53-5.79,16.19-1.57,22,5.13,6.06,13.44,4.73,20.46,2.16,10.37-3.72,19.54-10.59,28.3-17.23h0Z"/>
    <path class="cls-1" d="M79.33,11.68c-19.87,2.76-39,12.48-52.26,27.66-4.46,5.44-9.85,12.57-9.09,19.96,1.3,4.18,12.45,3.46,16.21,3.72,1.82.25,12.31-.69,9.07,3.16-.81.96-1.93,1.7-2.65,2.67-.23.32-.38.68-.29.99.08.31.42.52.79.65,1.58.61,3.42.29,4.89,1.37.84.71.26,1.92-.42,2.48-.71.81-2.37,1.54-1.57,2.69,1.54,1.36,3.86,1.2,5.84,1.68,6.57,1.65,13.05,3.86,18.94,7.26,1.32.89,3.25,2.13,2.9,4.06-.16.71-.82,1.55-1.56,1.02-.35-.27-.42-.77-.15-1.13.15-.2.3-.31.26-.57-.25-1-1.27-1.74-2.11-2.41-5.49-3.74-11.97-6.07-18.37-7.8-1.96-.52-4.48-.31-6.08-1.84-1.68-2.13,3.51-3.22,2.03-5.12-1.31-.94-3.23-.68-4.76-1.28-1.1-.34-1.43-1.38-.71-2.29.54-1.06,4.65-3.47,2.61-4.4-2.77-.88-5.8-.61-8.68-.75-3.36-.07-6.74-.1-10.1-.56-2.33-.45-5.72-.8-6.53-3.5-.83-7.54,4.65-14.82,9.18-20.35,13.4-15.23,32.48-25.15,52.49-28.17.22-.03.43.12.46.34.03.22-.12.43-.35.46h0Z"/>
  </g>
</svg>