<?xml version="1.0" encoding="UTF-8" standalone="no"?>
<!-- Created with Inkscape (http://www.inkscape.org/) -->

<svg
   width="139.55402"
   height="196.22873"
   viewBox="0 0 139.55402 196.22873"
   version="1.1"
   id="svg1"
   xmlns="http://www.w3.org/2000/svg"
   xmlns:svg="http://www.w3.org/2000/svg">
  <defs
     id="defs1" />
  <g
     id="layer1"
     transform="translate(-706.10209,-309.97986)">
    <g
       id="layer3">
      <path
         id="rect2-7-1"
         style="fill:#666666;stroke:#ffffff;stroke-width:0;stroke-linecap:round;stroke-linejoin:round;paint-order:fill markers stroke"
         d="m 716.90802,323.33743 a 55.65643,55.65643 45 0 1 55.65643,55.65643 55.65643,55.65643 45 0 1 -55.65643,-55.65643 z"
         transform="matrix(0.65028431,0,0,0.65028431,273.82204,126.94119)" />
      <path
         id="rect2-8-1-4"
         style="fill:#666666;stroke:#ffffff;stroke-width:0;stroke-linecap:round;stroke-linejoin:round;paint-order:fill markers stroke"
         d="m 716.90802,323.33743 a 55.65643,55.65643 45 0 1 55.65643,55.65643 55.65643,55.65643 45 0 1 -55.65643,-55.65643 z"
         transform="matrix(-0.65028431,0,0,0.65028431,1278.7339,126.94119)" />
      <path
         style="fill:#666666;stroke:#ffffff;stroke-width:0;stroke-linecap:round;stroke-linejoin:round;stroke-dasharray:none;paint-order:fill markers stroke"
         id="rect3"
         width="45.11644"
         height="44.977196"
         x="767.4234"
         y="267.75488"
         d="m 767.4234,267.75488 h 0.13924 a 44.977196,44.977196 45 0 1 44.9772,44.9772 h -0.13924 a 44.977196,44.977196 45 0 1 -44.9772,-44.9772 z"
         transform="rotate(45,720.82133,299.41259)" />
    </g>
    <g
       id="layer2">
      <path
         id="rect2-7"
         style="fill:#4d4d4d;stroke:#ffffff;stroke-width:0;stroke-linecap:round;stroke-linejoin:round;paint-order:fill markers stroke"
         d="m 716.90802,323.33743 a 55.65643,55.65643 45 0 1 55.65643,55.65643 55.65643,55.65643 45 0 1 -55.65643,-55.65643 z"
         transform="matrix(0.91814151,0,0,0.91814151,66.689157,54.203538)" />
      <path
         id="rect2-8-1"
         style="fill:#4d4d4d;stroke:#ffffff;stroke-width:0;stroke-linecap:round;stroke-linejoin:round;paint-order:fill markers stroke"
         d="m 716.90802,323.33743 a 55.65643,55.65643 45 0 1 55.65643,55.65643 55.65643,55.65643 45 0 1 -55.65643,-55.65643 z"
         transform="matrix(-0.91814151,0,0,0.91814151,1485.5321,54.203538)" />
      <path
         style="fill:#4d4d4d;stroke:#ffffff;stroke-width:0;stroke-linecap:round;stroke-linejoin:round;stroke-dasharray:none;paint-order:fill markers stroke"
         id="rect3-1"
         width="45.11644"
         height="44.977196"
         x="767.4234"
         y="267.75488"
         d="m 767.4234,267.75488 h 0.13924 a 44.977196,44.977196 45 0 1 44.9772,44.9772 h -0.13924 a 44.977196,44.977196 45 0 1 -44.9772,-44.9772 z"
         transform="matrix(0.70959085,0.70959085,-0.70959085,0.70959085,421.55251,-396.34876)" />
    </g>
    <path
       id="rect2"
       style="fill:#333333;stroke:#ffffff;stroke-width:0;stroke-linecap:round;stroke-linejoin:round;paint-order:fill markers stroke"
       d="m 716.90802,323.33743 a 55.65643,55.65643 45 0 1 55.65643,55.65643 55.65643,55.65643 45 0 1 -55.65643,-55.65643 z"
       transform="matrix(1.2513097,0,0,1.2513097,-190.97184,-30.027567)" />
    <path
       id="rect2-8"
       style="fill:#333333;stroke:#ffffff;stroke-width:0;stroke-linecap:round;stroke-linejoin:round;paint-order:fill markers stroke"
       d="m 716.90802,323.33743 a 55.65643,55.65643 45 0 1 55.65643,55.65643 55.65643,55.65643 45 0 1 -55.65643,-55.65643 z"
       transform="matrix(-1.2513097,0,0,1.2513097,1742.7301,-30.027567)" />
    <path
       style="fill:#333333;stroke:#ffffff;stroke-width:0;stroke-linecap:round;stroke-linejoin:round;stroke-dasharray:none;paint-order:fill markers stroke"
       id="rect3-6"
       width="45.11644"
       height="44.977196"
       x="767.4234"
       y="267.75488"
       d="m 767.4234,267.75488 h 0.13924 a 44.977196,44.977196 45 0 1 44.9772,44.9772 h -0.13924 a 44.977196,44.977196 45 0 1 -44.9772,-44.9772 z"
       transform="matrix(0.93177522,0.93177522,-0.93177522,0.93177522,310.36903,-604.35345)" />
  </g>
  <g
     id="layer4"
     transform="translate(-706.10209,-309.97986)">
    <path
       id="rect1"
       style="fill:#1a1a1a;stroke:#ffffff;stroke-width:0;stroke-linecap:round;stroke-linejoin:round;paint-order:fill markers stroke"
       d="m 716.90799,422.72393 h 118.60123 l -19.8773,83.48466 -79.50921,-0.46639 z" />
  </g>
</svg>
