<?xml version="1.0" encoding="UTF-8" standalone="no"?>
<!-- Created with Inkscape (http://www.inkscape.org/) -->

<svg
   width="519.89825"
   height="288.40723"
   viewBox="0 0 519.89825 288.40723"
   version="1.1"
   id="svg1"
   xmlns="http://www.w3.org/2000/svg"
   xmlns:svg="http://www.w3.org/2000/svg">
  <defs
     id="defs1" />
  <g
     id="layer7"
     style="fill:#f2f2f2;stroke:#1a1a1a;stroke-width:3;stroke-dasharray:none;stroke-opacity:1"
     transform="translate(-219.49309,-666.08758)">
    <path
       id="path1"
       style="fill:#333333;stroke:#000000;stroke-width:0;stroke-linecap:round;paint-order:fill markers stroke"
       d="m 442.10639,671.00282 a 144.24979,144.24979 0 0 0 -101.99826,176.66894 144.24979,144.24979 0 0 0 9.58444,24.98596 l 1.33855,-0.0756 c 37.84188,-2.12334 87.69855,-10.92445 138.52495,-24.50224 50.7094,-13.59016 98.27613,-30.83625 132.22876,-47.89435 l 1.19046,-0.59805 A 144.24979,144.24979 0 0 0 618.77583,773.00296 144.24979,144.24979 0 0 0 442.10639,671.00282 Z m -86.00775,207.21769 c 2.28498,4.14989 4.74104,8.19972 7.43186,12.10013 40.26133,-5.60406 85.10459,-14.84119 130.14292,-26.87459 45.02034,-12.09785 88.47366,-26.51969 126.14248,-41.79688 0.3764,-4.67676 0.48187,-9.36492 0.39131,-14.0548 -34.14369,16.6477 -80.08267,33.14534 -129.1001,46.28159 l -0.002,5.7e-4 c -49.12254,13.12261 -97.18769,21.76325 -135.00648,24.34398 z m 7.94129,18.10654 a 144.24979,144.24979 0 0 0 152.73576,53.34536 144.24979,144.24979 0 0 0 105.60223,-122.56682 c -38.00607,15.42962 -81.80489,29.95063 -127.15158,42.13601 l -0.002,5.6e-4 -0.002,5.7e-4 c -45.36329,12.12014 -90.55396,21.44379 -131.18244,27.08432 z" />
    <path
       id="path2"
       style="fill:#b3b3b3;stroke:#000000;stroke-width:0;stroke-linecap:round;paint-order:fill markers stroke"
       d="m 336.18633,796.92643 a 57.982758,268.70056 75 0 0 -116.28881,82.95566 57.982758,268.70056 75 0 0 142.18739,13.69918 57.982758,268.70056 75 0 0 132.36308,-27.23694 57.982758,268.70056 75 0 0 128.25014,-42.59416 57.982758,268.70056 75 0 0 116.28831,-82.95753 57.982758,268.70056 75 0 0 -141.80827,-13.7482 144.24979,144.24979 0 0 1 10.87224,18.03495 42.072853,200.58549 75 0 1 65.14176,13.34276 42.072853,200.58549 75 0 1 -50.06034,44.44361 42.072853,200.58549 75 0 1 -132.80119,48.11243 42.072853,200.58549 75 0 1 -139.13163,24.60009 42.072853,200.58549 75 0 1 -65.50911,-13.3252 42.072853,200.58549 75 0 1 50.06907,-44.29026 144.24979,144.24979 0 0 1 0.42736,-21.03639 z" />
  </g>
</svg>
