<?xml version="1.0" encoding="UTF-8"?>
<svg id="Layer_2" data-name="Layer 2" xmlns="http://www.w3.org/2000/svg" viewBox="0 0 64.99 83.38">
  <defs>
    <style>
      .cls-1 {
        fill: none;
        stroke-width: 5px;
      }

      .cls-1, .cls-2 {
        stroke: #231f20;
        stroke-miterlimit: 10;
      }

      .cls-2 {
        fill: #231f20;
        stroke-width: 2px;
      }
    </style>
  </defs>
  <g id="Layer_1-2" data-name="Layer 1">
    <path class="cls-1" d="M55.96,25.97c0,12.96-15.72,30.38-23.47,30.38-9.26,0-23.47-17.42-23.47-30.38S19.54,2.5,32.5,2.5s23.47,10.51,23.47,23.47Z"/>
    <path class="cls-2" d="M37.24,41.77h0c0-6.82,5.53-12.35,12.35-12.35h0c0,6.82-5.53,12.35-12.35,12.35Z"/>
    <path class="cls-2" d="M27.76,41.77h0c0-6.82-5.53-12.35-12.35-12.35h0c0,6.82,5.53,12.35,12.35,12.35Z"/>
    <path class="cls-1" d="M57.54,80.88H7.45c-4.3,0-6.55-5.11-3.64-8.28l19.03-20.78c3.31,2.78,6.73,4.52,9.65,4.52,2.54,0,5.94-1.87,9.36-4.84l19.33,21.1c2.91,3.17.66,8.28-3.64,8.28Z"/>
  </g>
</svg>