<?xml version="1.0" encoding="UTF-8"?>
<svg id="Layer_2" data-name="Layer 2" xmlns="http://www.w3.org/2000/svg" viewBox="0 0 98.2 120.04">
  <defs>
    <style>
      .cls-1 {
        fill: #fff;
      }
    </style>
  </defs>
  <g id="Layer_1-2" data-name="Layer 1">
    <path class="cls-1" d="M97.94,103.2c-3.12-8.54-7.95-16.23-14.14-22.56.03-.99.05-2.01.05-3.05C83.85,44.82,61.54,0,49.1,0,37.52,0,14.35,44.82,14.35,77.58c0,1.05.02,2.06.05,3.05-6.19,6.33-11.02,14.02-14.14,22.56-1.09,2.97,1.36,6.04,4.32,5.42l16.74-3.5c.57.72,1.19,1.38,1.82,2l5.97,8.43c1.98,2.8,5.41,4.5,9.08,4.5h21.03c3.57,0,6.91-1.6,8.92-4.28l5.58-7.43c1.13-.94,2.19-1.99,3.16-3.21l16.74,3.5c2.96.62,5.41-2.45,4.32-5.42ZM49.1,62.92c-7.74,0-14.02-6.28-14.02-14.02s6.28-14.02,14.02-14.02,14.02,6.28,14.02,14.02-6.28,14.02-14.02,14.02Z"/>
  </g>
</svg>